<svg width="178" height="36" viewBox="0 0 178 36" fill="none" xmlns="http://www.w3.org/2000/svg">
<path d="M0 8C0 3.58172 3.58172 0 8 0H28C32.4183 0 36 3.58172 36 8V28C36 32.4183 32.4183 36 28 36H8C3.58172 36 0 32.4183 0 28V8Z" fill="#D0FBD0"/>
<path d="M15.4947 16.0127C16.958 14.8371 19.042 14.8371 20.5053 16.0127L26.5682 20.8838C29.3326 23.1047 28.0487 27.5325 24.5104 27.7657C19.9196 28.0684 15.8551 28.0794 11.3798 27.7892C7.85661 27.5607 6.59696 23.1613 9.34934 20.95L15.4947 16.0127Z" fill="#0FAE0F"/>
<path d="M12 14.5C12 17 12 17 9.5 17C8.11929 17 7 15.8807 7 14.5C7 13.1193 8.11929 12 9.5 12C10.8807 12 12 13.1193 12 14.5Z" fill="#0FAE0F"/>
<path d="M16.6647 11.75C15.4147 13.9151 15.4147 13.9151 13.2497 12.6651C12.0539 11.9747 11.6442 10.4458 12.3346 9.25002C13.025 8.05429 14.5539 7.64461 15.7497 8.33496C16.9454 9.02532 17.3551 10.5543 16.6647 11.75Z" fill="#0FAE0F"/>
<path d="M22.7499 12.6653C20.5848 13.9153 20.5848 13.9153 19.3348 11.7503C18.6444 10.5545 19.0541 9.02556 20.2499 8.33521C21.4456 7.64485 22.9746 8.05454 23.6649 9.25027C24.3553 10.446 23.9456 11.975 22.7499 12.6653Z" fill="#0FAE0F"/>
<path d="M26.5002 16.9999C24.0002 16.9999 24.0002 16.9999 24.0002 14.4999C24.0002 13.1192 25.1195 11.9999 26.5002 11.9999C27.881 11.9999 29.0002 13.1192 29.0002 14.4999C29.0002 15.8806 27.881 16.9999 26.5002 16.9999Z" fill="#0FAE0F"/>
<path d="M50.36 10.64L48.86 10.38V9.14H51.78C52.22 9.14 52.8133 9.11333 53.56 9.06C53.7333 9.04667 53.9933 9.03333 54.34 9.02C54.7 9.00667 55.02 9 55.3 9C57.7533 9 59.5867 9.61333 60.8 10.84C62.0267 12.0667 62.64 13.8067 62.64 16.06C62.64 17.6333 62.3333 19.0333 61.72 20.26C61.12 21.4867 60.26 22.4467 59.14 23.14C58.02 23.82 56.7133 24.16 55.22 24.16C54.8333 24.16 54.2267 24.1333 53.4 24.08C52.6267 24.0267 52.1 24 51.82 24H48.78V22.8L50.36 22.6V10.64ZM53.26 22.66C53.7133 22.78 54.3467 22.84 55.16 22.84C56.4933 22.8133 57.54 22.28 58.3 21.24C59.06 20.1867 59.44 18.6133 59.44 16.52C59.44 14.5333 59.0667 13 58.32 11.92C57.5733 10.8267 56.4133 10.28 54.84 10.28C54.5067 10.28 54.1867 10.3 53.88 10.34C53.5867 10.38 53.38 10.4067 53.26 10.42V22.66ZM64.1148 18.46C64.1148 17.2067 64.3615 16.14 64.8548 15.26C65.3615 14.38 66.0348 13.72 66.8748 13.28C67.7148 12.8267 68.6282 12.6 69.6148 12.6C71.2948 12.6 72.5882 13.12 73.4948 14.16C74.4148 15.1867 74.8748 16.5867 74.8748 18.36C74.8748 19.6267 74.6215 20.7067 74.1148 21.6C73.6215 22.48 72.9548 23.14 72.1148 23.58C71.2882 24.0067 70.3748 24.22 69.3748 24.22C67.7082 24.22 66.4148 23.7067 65.4948 22.68C64.5748 21.64 64.1148 20.2333 64.1148 18.46ZM69.5348 22.92C71.0415 22.92 71.7948 21.4667 71.7948 18.56C71.7948 17.04 71.6148 15.8867 71.2548 15.1C70.8948 14.3 70.3082 13.9 69.4948 13.9C67.9482 13.9 67.1748 15.3533 67.1748 18.26C67.1748 19.78 67.3615 20.94 67.7348 21.74C68.1215 22.5267 68.7215 22.92 69.5348 22.92ZM81.533 29.4C79.7463 29.4 78.453 29.12 77.653 28.56C76.853 28 76.453 27.24 76.453 26.28C76.453 25.7333 76.633 25.2133 76.993 24.72C77.3663 24.24 77.813 23.88 78.333 23.64C77.7196 23.28 77.413 22.7067 77.413 21.92C77.413 21.4667 77.5596 21.04 77.853 20.64C78.1463 20.2267 78.5263 19.9067 78.993 19.68C78.2596 19.4 77.713 18.9733 77.353 18.4C76.993 17.8267 76.813 17.1467 76.813 16.36C76.813 15.6 77.033 14.94 77.473 14.38C77.9263 13.8067 78.5263 13.3667 79.273 13.06C80.033 12.7533 80.853 12.6 81.733 12.6C83.293 12.6 84.453 12.9 85.213 13.5C85.3863 13.2733 85.6796 13.06 86.093 12.86C86.5063 12.66 86.933 12.56 87.373 12.56H88.073V14.74H86.013C86.213 15.1667 86.313 15.62 86.313 16.1C86.3263 17.3133 85.8996 18.2867 85.033 19.02C84.1663 19.74 82.9796 20.1 81.473 20.1C80.8463 20.1 80.3196 20.0533 79.893 19.96C79.7596 20.1333 79.653 20.32 79.573 20.52C79.5063 20.7067 79.473 20.8733 79.473 21.02C79.473 21.46 79.6263 21.76 79.933 21.92C80.253 22.08 80.8196 22.16 81.633 22.16H83.773C86.493 22.16 87.853 23.1467 87.853 25.12C87.853 25.9467 87.5596 26.6867 86.973 27.34C86.3863 27.9933 85.6063 28.5 84.633 28.86C83.6596 29.22 82.6263 29.4 81.533 29.4ZM81.673 18.86C82.913 18.86 83.533 18.0133 83.533 16.32C83.533 15.4533 83.373 14.82 83.053 14.42C82.7463 14.0067 82.273 13.8 81.633 13.8C81.0063 13.8 80.5196 14.0067 80.173 14.42C79.8396 14.82 79.673 15.4267 79.673 16.24C79.673 17.9867 80.3396 18.86 81.673 18.86ZM81.833 28.02C82.673 28.02 83.3996 27.8133 84.013 27.4C84.6263 27 84.933 26.44 84.933 25.72C84.933 25.1467 84.7796 24.7333 84.473 24.48C84.1796 24.2267 83.6463 24.1 82.873 24.1H80.693C80.3596 24.1 80.053 24.08 79.773 24.04C79.413 24.52 79.233 25.0933 79.233 25.76C79.233 26.4933 79.433 27.0533 79.833 27.44C80.233 27.8267 80.8996 28.02 81.833 28.02ZM89.1344 18.46C89.1344 17.2067 89.381 16.14 89.8744 15.26C90.381 14.38 91.0544 13.72 91.8944 13.28C92.7344 12.8267 93.6477 12.6 94.6344 12.6C96.3144 12.6 97.6077 13.12 98.5144 14.16C99.4344 15.1867 99.8944 16.5867 99.8944 18.36C99.8944 19.6267 99.641 20.7067 99.1344 21.6C98.641 22.48 97.9744 23.14 97.1344 23.58C96.3077 24.0067 95.3944 24.22 94.3944 24.22C92.7277 24.22 91.4344 23.7067 90.5144 22.68C89.5944 21.64 89.1344 20.2333 89.1344 18.46ZM94.5544 22.92C96.061 22.92 96.8144 21.4667 96.8144 18.56C96.8144 17.04 96.6344 15.8867 96.2744 15.1C95.9144 14.3 95.3277 13.9 94.5144 13.9C92.9677 13.9 92.1944 15.3533 92.1944 18.26C92.1944 19.78 92.381 20.94 92.7544 21.74C93.141 22.5267 93.741 22.92 94.5544 22.92ZM112.773 18.08C112.773 19.2 112.539 20.2267 112.073 21.16C111.619 22.0933 110.946 22.84 110.053 23.4C109.173 23.9467 108.119 24.22 106.893 24.22C106.626 24.22 106.346 24.1933 106.053 24.14C105.773 24.1 105.546 24.0467 105.373 23.98L105.433 25.64V27.46L107.293 27.7V28.84H101.353V27.7L102.653 27.46V14.78L101.353 14.42V13.04L104.653 12.62H104.693L105.193 13.02V14.14C105.526 13.7267 105.979 13.3667 106.553 13.06C107.126 12.7533 107.753 12.6 108.433 12.6C109.699 12.6 110.739 13.0533 111.553 13.96C112.366 14.8533 112.773 16.2267 112.773 18.08ZM107.393 14.26C106.993 14.26 106.613 14.3467 106.253 14.52C105.893 14.6933 105.619 14.8867 105.433 15.1V22.52C105.526 22.6533 105.713 22.7667 105.993 22.86C106.286 22.9533 106.606 23 106.953 23C107.819 23 108.506 22.6267 109.013 21.88C109.533 21.12 109.793 19.9333 109.793 18.32C109.793 16.96 109.573 15.9467 109.133 15.28C108.693 14.6 108.113 14.26 107.393 14.26ZM119.448 24.22C117.688 24.22 116.374 23.7067 115.508 22.68C114.654 21.64 114.228 20.2267 114.228 18.44C114.228 17.24 114.448 16.2 114.888 15.32C115.341 14.44 115.974 13.7667 116.788 13.3C117.601 12.8333 118.541 12.6 119.608 12.6C120.941 12.6 121.968 12.9533 122.688 13.66C123.408 14.3533 123.781 15.3467 123.808 16.64C123.808 17.52 123.754 18.1733 123.648 18.6H117.148C117.201 19.8133 117.488 20.76 118.008 21.44C118.528 22.1067 119.268 22.44 120.228 22.44C120.748 22.44 121.281 22.3533 121.828 22.18C122.388 22.0067 122.828 21.8 123.148 21.56L123.648 22.66C123.288 23.0467 122.701 23.4067 121.888 23.74C121.088 24.06 120.274 24.22 119.448 24.22ZM121.008 17.4C121.034 17.0267 121.048 16.74 121.048 16.54C121.048 14.7667 120.454 13.88 119.268 13.88C118.614 13.88 118.108 14.14 117.748 14.66C117.388 15.18 117.188 16.0933 117.148 17.4H121.008ZM129.584 24.22C128.757 24.22 128.017 24.0267 127.364 23.64C126.711 23.24 126.191 22.6267 125.804 21.8C125.417 20.9733 125.224 19.94 125.224 18.7C125.224 17.58 125.451 16.56 125.904 15.64C126.371 14.7067 127.051 13.9667 127.944 13.42C128.837 12.8733 129.911 12.6 131.164 12.6C131.671 12.6 132.151 12.6533 132.604 12.76V9.38L130.644 9.1V8L134.764 7.6H134.824L135.384 8.02V22.78H136.464V23.92C135.504 24.12 134.711 24.22 134.084 24.22C133.657 24.22 133.351 24.1467 133.164 24C132.991 23.8667 132.904 23.5933 132.904 23.18V22.62C132.557 23.0867 132.084 23.4733 131.484 23.78C130.884 24.0733 130.251 24.22 129.584 24.22ZM130.624 22.56C131.064 22.56 131.451 22.4733 131.784 22.3C132.131 22.1133 132.404 21.8933 132.604 21.64V14.36C132.511 14.2267 132.311 14.1133 132.004 14.02C131.711 13.9267 131.391 13.88 131.044 13.88C130.191 13.88 129.504 14.2533 128.984 15C128.477 15.7333 128.224 16.9133 128.224 18.54C128.224 19.9 128.444 20.9133 128.884 21.58C129.324 22.2333 129.904 22.56 130.624 22.56ZM140.303 11.06C139.823 11.06 139.443 10.92 139.163 10.64C138.883 10.36 138.743 10 138.743 9.56C138.743 9.05333 138.903 8.63333 139.223 8.3C139.543 7.96667 139.97 7.8 140.503 7.8C141.037 7.8 141.443 7.94667 141.723 8.24C142.003 8.52 142.143 8.87333 142.143 9.3C142.143 9.83333 141.983 10.26 141.663 10.58C141.343 10.9 140.897 11.06 140.323 11.06H140.303ZM139.243 14.78L137.823 14.4V13.06L141.483 12.62H141.523L142.083 13.02V22.64L143.423 22.8V24H137.843V22.8L139.243 22.62V14.78ZM144.637 20.88C144.637 19.6667 145.244 18.7533 146.457 18.14C147.684 17.5267 149.264 17.2133 151.197 17.2V16.74C151.197 16.1933 151.137 15.7667 151.017 15.46C150.91 15.1533 150.704 14.9267 150.397 14.78C150.104 14.62 149.67 14.54 149.097 14.54C148.444 14.54 147.857 14.6267 147.337 14.8C146.817 14.96 146.277 15.1733 145.717 15.44L145.097 14.16C145.297 13.9867 145.63 13.78 146.097 13.54C146.577 13.3 147.144 13.0933 147.797 12.92C148.45 12.7333 149.124 12.64 149.817 12.64C150.844 12.64 151.644 12.7733 152.217 13.04C152.804 13.3067 153.224 13.7333 153.477 14.32C153.73 14.9067 153.857 15.6933 153.857 16.68V22.8H154.937V23.92C154.67 23.9867 154.29 24.0533 153.797 24.12C153.304 24.1867 152.87 24.22 152.497 24.22C152.044 24.22 151.737 24.1533 151.577 24.02C151.43 23.8867 151.357 23.6133 151.357 23.2V22.66C150.997 23.06 150.53 23.42 149.957 23.74C149.384 24.06 148.737 24.22 148.017 24.22C147.404 24.22 146.837 24.0933 146.317 23.84C145.81 23.5733 145.404 23.1933 145.097 22.7C144.79 22.1933 144.637 21.5867 144.637 20.88ZM149.297 22.56C149.577 22.56 149.897 22.48 150.257 22.32C150.617 22.1467 150.93 21.94 151.197 21.7V18.42C149.997 18.42 149.097 18.6267 148.497 19.04C147.91 19.44 147.617 19.96 147.617 20.6C147.617 21.24 147.764 21.7267 148.057 22.06C148.364 22.3933 148.777 22.56 149.297 22.56Z" fill="black"/>
</svg>
