<svg width="20" height="17" viewBox="0 0 20 17" fill="none" xmlns="http://www.w3.org/2000/svg">
<path d="M7.54688 0H19.5469V13.0312C19.5469 13.5625 19.4062 14.0625 19.125 14.5312C18.875 14.9688 18.5156 15.3281 18.0469 15.6094C17.6094 15.8906 17.1094 16.0312 16.5469 16.0312H6.5625C6 16.0312 5.51562 15.8438 5.10938 15.4688C4.73438 15.0625 4.54688 14.5781 4.54688 14.0156V11.0156H7.54688V8.76562C6.98438 8.73438 6.42188 8.60938 5.85938 8.39062C5.32812 8.14062 4.84375 7.8125 4.40625 7.40625V6.28125H3.32812L0 2.95312C0.6875 2.26562 1.45312 1.75 2.29688 1.40625C3.17188 1.0625 4.04688 0.890625 4.92188 0.890625C5.82812 0.890625 6.70312 1.0625 7.54688 1.40625V0ZM6.42188 6.42188C6.85938 6.64062 7.3125 6.75 7.78125 6.75C8.53125 6.75 9.17188 6.48438 9.70312 5.95312L9.89062 5.76562L8.48438 4.35938C7.48438 3.39062 6.29688 2.90625 4.92188 2.90625C4.29688 2.90625 3.6875 3.01562 3.09375 3.23438L4.17188 4.26562H6.42188V6.42188ZM17.5312 13.0312V2.01562H9.5625V2.625L15.5625 8.625V10.0312H14.1562L11.2969 7.21875L11.1094 7.40625C10.6719 7.84375 10.1562 8.1875 9.5625 8.4375V11.0156H15.5625V13.0312C15.5625 13.2812 15.6562 13.5156 15.8438 13.7344C16.0312 13.9219 16.2656 14.0156 16.5469 14.0156C16.8281 14.0156 17.0625 13.9219 17.25 13.7344C17.4375 13.5156 17.5312 13.2812 17.5312 13.0312Z" fill="#13EC13"/>
</svg>
