<svg width="12" height="12" viewBox="0 0 12 12" fill="none" xmlns="http://www.w3.org/2000/svg">
<path d="M8.94141 6.91797C8.97786 6.95443 9.05078 7.03646 9.16016 7.16406C9.28776 7.27344 9.36979 7.34635 9.40625 7.38281C9.44271 7.41927 9.51562 7.5013 9.625 7.62891C9.7526 7.75651 9.82552 7.84766 9.84375 7.90234C9.88021 7.9388 9.95312 8.02083 10.0625 8.14844C10.1719 8.27604 10.2266 8.36719 10.2266 8.42188C10.2448 8.47656 10.2904 8.57682 10.3633 8.72266C10.4544 8.86849 10.4818 8.97786 10.4453 9.05078C10.4271 9.10547 10.4362 9.21484 10.4727 9.37891C10.5273 9.52474 10.5273 9.63411 10.4727 9.70703C10.2721 10.4727 9.81641 10.9284 9.10547 11.0742C8.97786 11.0924 8.53125 11.056 7.76562 10.9648C7.01823 10.8737 6.38932 10.8281 5.87891 10.8281H5.76953C5.25911 10.8281 4.62109 10.8737 3.85547 10.9648C3.10807 11.056 2.67057 11.0924 2.54297 11.0742C1.83203 10.9284 1.3763 10.4727 1.17578 9.70703C1.12109 9.34245 1.1849 8.96875 1.36719 8.58594C1.54948 8.20312 1.71354 7.92969 1.85938 7.76562C2.02344 7.60156 2.30599 7.31901 2.70703 6.91797C2.88932 6.71745 3.1263 6.4349 3.41797 6.07031C3.72786 5.70573 3.97396 5.42318 4.15625 5.22266C4.48438 4.82161 4.82161 4.56641 5.16797 4.45703C5.24089 4.42057 5.30469 4.40234 5.35938 4.40234C5.46875 4.38411 5.6237 4.375 5.82422 4.375C6.04297 4.375 6.19792 4.38411 6.28906 4.40234C6.34375 4.40234 6.40755 4.42057 6.48047 4.45703C6.82682 4.56641 7.16406 4.82161 7.49219 5.22266C7.65625 5.42318 7.89323 5.70573 8.20312 6.07031C8.51302 6.4349 8.75911 6.71745 8.94141 6.91797ZM9.16016 4.83984C8.88672 4.54818 8.75 4.20182 8.75 3.80078C8.75 3.39974 8.88672 3.05339 9.16016 2.76172C9.45182 2.47005 9.79818 2.32422 10.1992 2.32422C10.6003 2.32422 10.9375 2.47005 11.2109 2.76172C11.5026 3.05339 11.6484 3.39974 11.6484 3.80078C11.6484 4.20182 11.5026 4.54818 11.2109 4.83984C10.9375 5.11328 10.6003 5.25 10.1992 5.25C9.79818 5.25 9.45182 5.11328 9.16016 4.83984ZM6.53516 2.48828C6.26172 2.19661 6.125 1.85026 6.125 1.44922C6.125 1.04818 6.26172 0.710938 6.53516 0.4375C6.82682 0.145833 7.17318 0 7.57422 0C7.97526 0 8.3125 0.145833 8.58594 0.4375C8.8776 0.710938 9.02344 1.04818 9.02344 1.44922C9.02344 1.85026 8.8776 2.19661 8.58594 2.48828C8.3125 2.77995 7.97526 2.92578 7.57422 2.92578C7.17318 2.92578 6.82682 2.77995 6.53516 2.48828ZM3.03516 2.48828C2.76172 2.19661 2.625 1.85026 2.625 1.44922C2.625 1.04818 2.76172 0.710938 3.03516 0.4375C3.32682 0.145833 3.67318 0 4.07422 0C4.47526 0 4.8125 0.145833 5.08594 0.4375C5.3776 0.710938 5.52344 1.04818 5.52344 1.44922C5.52344 1.85026 5.3776 2.19661 5.08594 2.48828C4.8125 2.77995 4.47526 2.92578 4.07422 2.92578C3.67318 2.92578 3.32682 2.77995 3.03516 2.48828ZM0.410156 4.83984C0.136719 4.54818 0 4.20182 0 3.80078C0 3.39974 0.136719 3.05339 0.410156 2.76172C0.701823 2.47005 1.04818 2.32422 1.44922 2.32422C1.85026 2.32422 2.1875 2.47005 2.46094 2.76172C2.7526 3.05339 2.89844 3.39974 2.89844 3.80078C2.89844 4.20182 2.7526 4.54818 2.46094 4.83984C2.1875 5.11328 1.85026 5.25 1.44922 5.25C1.04818 5.25 0.701823 5.11328 0.410156 4.83984Z" fill="#618961"/>
</svg>
