<svg width="12" height="12" viewBox="0 0 12 12" fill="none" xmlns="http://www.w3.org/2000/svg">
<path d="M7 5.25C7.52865 5.35938 8.06641 5.55078 8.61328 5.82422C9.16016 6.09766 9.66146 6.48958 10.1172 7C10.5911 7.49219 10.9648 8.12109 11.2383 8.88672C11.5117 9.65234 11.6484 10.5729 11.6484 11.6484H8.14844V10.5H10.418C10.3086 9.69792 10.099 9.04167 9.78906 8.53125C9.4974 8.0026 9.15104 7.59245 8.75 7.30078C8.36719 6.99089 7.97526 6.76302 7.57422 6.61719C7.19141 6.47135 6.83594 6.38021 6.50781 6.34375C6.19792 6.30729 5.97005 6.28906 5.82422 6.28906C5.67839 6.28906 5.44141 6.30729 5.11328 6.34375C4.80339 6.38021 4.44792 6.47135 4.04688 6.61719C3.66406 6.76302 3.27214 6.99089 2.87109 7.30078C2.48828 7.59245 2.14193 8.0026 1.83203 8.53125C1.54036 9.04167 1.33984 9.69792 1.23047 10.5H3.5V11.6484H0C0 10.5729 0.136719 9.65234 0.410156 8.88672C0.683594 8.12109 1.04818 7.49219 1.50391 7C1.97786 6.48958 2.48828 6.09766 3.03516 5.82422C3.58203 5.55078 4.11979 5.35938 4.64844 5.25V3.5C3.77344 3.3724 2.98047 3.14453 2.26953 2.81641C1.55859 2.47005 1.0026 2.0599 0.601562 1.58594C0.200521 1.09375 0 0.565104 0 0H11.6484C11.6484 0.565104 11.4479 1.09375 11.0469 1.58594C10.6458 2.0599 10.0898 2.47005 9.37891 2.81641C8.66797 3.14453 7.875 3.3724 7 3.5V5.25ZM5.82422 11.6484C6.15234 11.6484 6.42578 11.5391 6.64453 11.3203C6.73568 11.2292 6.84505 11.0651 6.97266 10.8281C7.10026 10.5729 7.22786 10.2995 7.35547 10.0078C7.5013 9.69792 7.62891 9.40625 7.73828 9.13281C7.86589 8.85938 7.96615 8.63151 8.03906 8.44922C8.11198 8.2487 8.14844 8.14844 8.14844 8.14844C8.14844 8.14844 8.05729 8.1849 7.875 8.25781C7.69271 8.33073 7.45573 8.43099 7.16406 8.55859C6.89062 8.66797 6.59896 8.79557 6.28906 8.94141C5.9974 9.06901 5.73307 9.19661 5.49609 9.32422C5.25911 9.45182 5.09505 9.57031 5.00391 9.67969C4.76693 9.89844 4.64844 10.1719 4.64844 10.5C4.64844 10.8099 4.75781 11.0833 4.97656 11.3203C5.21354 11.5391 5.49609 11.6484 5.82422 11.6484Z" fill="#618961"/>
</svg>
