<svg width="18" height="18" viewBox="0 0 18 18" fill="none" xmlns="http://www.w3.org/2000/svg">
<path d="M15.9844 0C16.5469 0 17.0156 0.203125 17.3906 0.609375C17.7969 0.984375 18 1.45312 18 2.01562V15.9844C18 16.5469 17.7969 17.0312 17.3906 17.4375C17.0156 17.8125 16.5469 18 15.9844 18H2.01562C1.45312 18 0.96875 17.8125 0.5625 17.4375C0.1875 17.0312 0 16.5469 0 15.9844V2.01562C0 1.45312 0.1875 0.984375 0.5625 0.609375C0.96875 0.203125 1.45312 0 2.01562 0H15.9844ZM9 9C9.5625 9 10.0625 8.875 10.5 8.625C10.9688 8.34375 11.3281 7.98438 11.5781 7.54688C11.8594 7.07812 12 6.5625 12 6C12 5.4375 11.8594 4.9375 11.5781 4.5C11.3281 4.03125 10.9688 3.67187 10.5 3.42188C10.0625 3.14062 9.5625 3 9 3C8.4375 3 7.92188 3.14062 7.45312 3.42188C7.01562 3.67187 6.65625 4.03125 6.375 4.5C6.125 4.9375 6 5.4375 6 6C6 6.5625 6.125 7.07812 6.375 7.54688C6.65625 7.98438 7.01562 8.34375 7.45312 8.625C7.92188 8.875 8.4375 9 9 9ZM6.98438 5.48438V6.51562H8.01562V5.48438H6.98438ZM8.48438 5.48438V6.51562H9.51562V5.48438H8.48438ZM9.98438 5.48438V6.51562H11.0156V5.48438H9.98438Z" fill="#618961"/>
</svg>
